<svg id="visual" viewBox="0 0 450 900" width="450" height="900" xmlns="http://www.w3.org/2000/svg" xmlns:xlink="http://www.w3.org/1999/xlink" version="1.1"><path d="M0 144L10.7 156C21.3 168 42.7 192 64.2 191C85.7 190 107.3 164 128.8 151.2C150.3 138.3 171.7 138.7 193 146.3C214.3 154 235.7 169 257 171.5C278.3 174 299.7 164 321.2 162.3C342.7 160.7 364.3 167.3 385.8 174.7C407.3 182 428.7 190 439.3 194L450 198L450 0L439.3 0C428.7 0 407.3 0 385.8 0C364.3 0 342.7 0 321.2 0C299.7 0 278.3 0 257 0C235.7 0 214.3 0 193 0C171.7 0 150.3 0 128.8 0C107.3 0 85.7 0 64.2 0C42.7 0 21.3 0 10.7 0L0 0Z" fill="#bf6f00" stroke-linecap="round" stroke-linejoin="miter"></path></svg>