<?xml version="1.0" encoding="UTF-8"?>
<svg xmlns="http://www.w3.org/2000/svg" xmlns:xlink="http://www.w3.org/1999/xlink" width="2101" height="2100" viewBox="0 0 2101 2100">
<defs>
<clipPath id="clip-0">
<path clip-rule="nonzero" d="M 0.742188 0 L 2100.738281 0 L 2100.738281 2100 L 0.742188 2100 Z M 0.742188 0 "/>
</clipPath>
<clipPath id="clip-1">
<path clip-rule="nonzero" d="M 567 221 L 2100.738281 221 L 2100.738281 1847 L 567 1847 Z M 567 221 "/>
</clipPath>
</defs>
<g clip-path="url(#clip-0)">
<path fill-rule="evenodd" fill="rgb(100%, 100%, 100%)" fill-opacity="1" d="M 2100.738281 0 L 0.742188 0 L 0.742188 2100 L 2100.738281 2100 L 2100.738281 0 "/>
</g>
<path fill-rule="evenodd" fill="rgb(0%, 0%, 0%)" fill-opacity="1" d="M 522.96875 1522.425781 C 522.96875 1522.425781 530.492188 1503.832031 516.996094 1516.640625 C 503.5 1529.460938 444.683594 1627.375 434.78125 1647.367188 C 424.871094 1667.363281 423.207031 1674.09375 409.210938 1681.230469 C 395.226562 1688.363281 381.097656 1692.480469 369.6875 1707.609375 C 358.277344 1722.734375 341.566406 1713.988281 340.472656 1725.480469 C 339.371094 1736.964844 342.515625 1754.585938 349.160156 1744.695312 C 355.804688 1734.8125 360.671875 1714.027344 378.539062 1712.789062 C 396.417969 1711.5625 403.433594 1689.722656 415.195312 1682.136719 C 426.957031 1674.546875 437.734375 1650.722656 449.992188 1643.945312 C 462.257812 1637.164062 462.828125 1637.046875 476.292969 1598.359375 C 489.757812 1559.675781 491.558594 1560.832031 498.996094 1552.914062 C 506.429688 1544.992188 516.679688 1534.972656 522.96875 1522.425781 "/>
<g clip-path="url(#clip-1)">
<path fill-rule="evenodd" fill="rgb(0%, 0%, 0%)" fill-opacity="1" d="M 1099.941406 1518.082031 C 1105.089844 1507.726562 1117.210938 1502.90625 1128.03125 1506.875 C 1160.890625 1518.742188 1189.070312 1535.515625 1198.101562 1556.398438 C 1215.800781 1597.410156 1249.78125 1578.410156 1285.308594 1587.386719 C 1320.839844 1596.328125 1360.121094 1640.003906 1364.761719 1664.960938 C 1369.421875 1689.910156 1353.210938 1710.847656 1325.21875 1698.230469 C 1297.238281 1685.601562 1278.730469 1699.171875 1286.070312 1723.75 C 1293.398438 1748.3125 1343.328125 1731.484375 1359.378906 1743.894531 C 1375.410156 1756.324219 1381.671875 1784.898438 1378.851562 1809.015625 C 1376.039062 1833.113281 1394.839844 1840.671875 1395.609375 1825.175781 C 1396.371094 1809.679688 1375.429688 1785.804688 1382.359375 1744.441406 C 1389.269531 1703.0625 1389.980469 1706.808594 1384.5 1692.222656 C 1379.03125 1677.636719 1389.78125 1642.125 1365.710938 1601.386719 C 1341.621094 1560.660156 1421.289062 1565.804688 1457.519531 1509.953125 C 1493.761719 1454.101562 1543.191406 1444.40625 1552.488281 1435.375 C 1561.78125 1426.335938 1614.148438 1407.894531 1614.148438 1407.894531 C 1614.148438 1407.894531 1608.910156 1394.542969 1641.988281 1375.683594 C 1675.078125 1356.800781 1675.308594 1357.089844 1702.941406 1328.761719 C 1730.570312 1300.425781 1753.039062 1302.941406 1800.328125 1315.96875 C 1847.578125 1328.996094 1836.578125 1319.0625 1858.859375 1315.84375 C 1881.121094 1312.625 1893.941406 1312.699219 1861.328125 1304.585938 C 1828.691406 1296.492188 1797.75 1302.230469 1762.859375 1301.523438 C 1727.949219 1300.800781 1773.460938 1235.917969 1813.570312 1230.117188 C 1853.660156 1224.324219 1903.589844 1236.976562 1946.078125 1263.519531 C 1988.550781 1290.074219 1984.398438 1272.726562 2016.671875 1278.953125 C 2048.949219 1285.183594 2100.738281 1293.074219 2100.738281 1293.074219 C 2071.910156 1285.714844 2029.921875 1276.390625 2012.808594 1267.980469 C 1995.660156 1259.5625 1991.058594 1239.722656 1971.328125 1241.941406 C 1951.609375 1244.140625 1901.351562 1234.746094 1867.921875 1222.277344 C 1834.480469 1209.808594 1872.441406 1187.671875 1913.109375 1184.984375 C 1953.789062 1182.324219 1950.21875 1197.566406 1994.980469 1216.734375 C 2039.738281 1235.910156 2060.261719 1242.789062 2045.640625 1228.546875 C 2023.378906 1206.84375 1899.191406 1162.101562 1875.449219 1154.585938 C 1851.699219 1147.0625 1846.300781 1118.109375 1791.539062 1111.941406 C 1736.769531 1105.777344 1797.628906 1068.03125 1792.890625 1042.671875 C 1788.171875 1017.320312 1740.140625 1005.238281 1729.789062 995.71875 C 1719.441406 986.199219 1744.179688 965.609375 1731.828125 960.691406 C 1719.480469 955.769531 1731.289062 942.441406 1747.269531 913.109375 C 1763.21875 883.761719 1889.480469 851.441406 1934.410156 813.671875 C 1979.351562 775.929688 1972.75 774.511719 1997.480469 765.820312 C 2022.210938 757.121094 2005.699219 727.929688 2030.691406 728.410156 C 2055.671875 728.921875 2075.898438 668.121094 2051.761719 672.859375 C 2027.628906 677.589844 2003.011719 754.148438 1970.769531 753.820312 C 1938.539062 753.460938 1956.128906 791.660156 1905.488281 778.960938 C 1854.878906 766.230469 1735.929688 772.460938 1726.421875 772.039062 C 1716.898438 771.589844 1737.910156 746.339844 1769.398438 735.769531 C 1800.890625 725.238281 1773.058594 709.429688 1843.359375 690.851562 C 1913.660156 672.300781 1945.351562 635.25 1919.828125 649.269531 C 1894.300781 663.269531 1891.738281 671.148438 1840.378906 683.238281 C 1789.039062 695.371094 1741.210938 719.160156 1729.859375 730.191406 C 1718.511719 741.21875 1739.230469 737.28125 1736.050781 749.019531 C 1732.871094 760.71875 1684.550781 781.78125 1657.539062 795.070312 C 1630.53125 808.359375 1610.601562 787.789062 1631.640625 764.101562 C 1652.679688 740.390625 1730.191406 710.421875 1746.078125 694.988281 C 1761.96875 679.558594 1747.710938 675.039062 1727.121094 693.980469 C 1706.519531 712.921875 1634.96875 753.28125 1620.179688 760.109375 C 1605.371094 766.960938 1592.769531 767.230469 1579.398438 755.328125 C 1566.019531 743.449219 1583.738281 723.480469 1553.980469 701.960938 C 1524.230469 680.398438 1522.789062 659 1554.03125 642.460938 C 1585.261719 625.949219 1609.289062 584.640625 1598.140625 575.441406 C 1586.96875 566.21875 1640.140625 547.75 1609.960938 551.488281 C 1579.78125 555.25 1587.699219 537.890625 1605.941406 507.019531 C 1624.191406 476.160156 1667.96875 471.640625 1666.320312 462.878906 C 1664.691406 454.089844 1668.089844 435.589844 1686.839844 411.851562 C 1705.550781 388.109375 1685.511719 391.03125 1670.5 397.988281 C 1655.519531 404.960938 1659.988281 428.941406 1659.988281 428.941406 C 1647.691406 431.910156 1647.039062 442.21875 1647.039062 442.21875 C 1625.640625 447.128906 1616.148438 465.308594 1605.25 484.910156 C 1594.320312 504.511719 1555.730469 540.398438 1555.730469 540.398438 C 1513.21875 545.371094 1487.320312 594.621094 1414.109375 597.019531 C 1345.738281 599.28125 1330.011719 554.359375 1330.011719 554.359375 C 1330.011719 554.359375 1253.699219 624.988281 1257.449219 553.109375 C 1261.171875 481.238281 1404.230469 355.101562 1427.710938 310.191406 C 1447.039062 273.140625 1477.160156 243.011719 1487.109375 233.578125 C 1489.070312 231.808594 1489.519531 228.941406 1488.230469 226.640625 C 1488.25 226.628906 1488.230469 226.609375 1488.230469 226.609375 C 1486.640625 223.78125 1483.699219 221.988281 1480.449219 221.851562 C 1477.230469 221.71875 1474.148438 223.28125 1472.339844 225.941406 C 1463.789062 237.761719 1448.800781 256.769531 1427.441406 277.511719 C 1391.988281 311.941406 1296.789062 444.308594 1227.761719 558.121094 C 1199.628906 604.5 1087.539062 614.738281 1051.421875 591.808594 C 1015.289062 568.871094 935.839844 607.910156 906.296875 621.160156 C 876.742188 634.390625 843.730469 648.769531 826.707031 680.070312 C 809.675781 711.359375 782.128906 710.871094 782.128906 710.871094 C 808.144531 742.339844 731.132812 761.140625 719.003906 779.558594 C 706.878906 797.96875 693.824219 835.730469 675.210938 839.058594 C 656.625 842.390625 609.929688 817.738281 611.328125 825.21875 C 612.722656 832.710938 648.875 835.171875 674.179688 848.171875 C 699.464844 861.191406 654.570312 904.828125 654.570312 904.828125 C 660.34375 916.179688 637.355469 936.570312 612.691406 948.75 C 588.035156 960.910156 572.386719 964.410156 593.816406 966.429688 C 615.234375 968.460938 628.140625 993.5 650.789062 1021.640625 C 673.4375 1049.761719 722.933594 1050.308594 697.183594 1079 C 671.445312 1107.714844 682.164062 1126.023438 684.1875 1141.753906 C 686.210938 1157.480469 689.03125 1187.183594 704.871094 1203.46875 C 720.730469 1219.773438 778.402344 1263.980469 718.421875 1280.960938 C 658.457031 1297.953125 682.863281 1311.09375 679.890625 1329.472656 C 676.929688 1347.835938 637.683594 1348.378906 645.164062 1363.953125 C 652.640625 1379.527344 626.671875 1407.003906 588.164062 1431.132812 C 549.664062 1455.289062 572.855469 1496.148438 591.09375 1461.476562 C 609.304688 1426.796875 632.074219 1401.722656 657.683594 1382.007812 C 683.285156 1362.296875 732.050781 1339.222656 760.0625 1327.496094 C 788.046875 1315.761719 802.574219 1344.421875 819.65625 1347.722656 C 836.738281 1351.027344 865.667969 1359.015625 868.90625 1400.835938 C 872.144531 1442.65625 844.359375 1524.203125 804.15625 1558.835938 C 763.972656 1593.472656 753.375 1634.71875 728.394531 1662.6875 C 703.410156 1690.640625 702.773438 1721.492188 688.253906 1731.914062 C 673.71875 1742.34375 674.480469 1780.671875 628.816406 1815.457031 C 583.15625 1850.242188 618.304688 1852.238281 622.863281 1837.453125 C 627.425781 1822.699219 655.734375 1793.003906 683.730469 1781.253906 C 711.746094 1769.527344 671.410156 1759.339844 707.464844 1736.832031 C 743.523438 1714.320312 762.628906 1703.882812 763.535156 1664.652344 C 764.445312 1625.441406 803.875 1576.824219 858.710938 1547.125 C 913.558594 1517.402344 977.628906 1483.160156 1033.171875 1486.675781 C 1033.191406 1486.671875 1033.191406 1486.671875 1033.191406 1486.671875 C 1041.941406 1487.238281 1049.578125 1492.808594 1052.789062 1500.972656 C 1055.980469 1509.140625 1054.140625 1518.410156 1048.101562 1524.753906 C 1033.820312 1540.140625 1018.421875 1555.605469 1002.21875 1568.09375 C 956.171875 1603.566406 934.324219 1714.308594 875.894531 1776.492188 C 875.894531 1776.492188 855.464844 1789.457031 863.941406 1804.53125 C 872.398438 1819.582031 875.703125 1805.789062 886.875 1781.765625 C 898.058594 1757.726562 977.457031 1710.5625 1034.050781 1641.925781 C 1071.738281 1596.207031 1084.109375 1552.710938 1099.941406 1518.082031 "/>
</g>
<path fill-rule="evenodd" fill="rgb(0%, 0%, 0%)" fill-opacity="1" d="M 1115.960938 1656.855469 C 1102.589844 1408.605469 873.617188 1338.425781 873.492188 1331.28125 C 873.394531 1324.136719 859.253906 1295.851562 859.253906 1295.851562 C 859.253906 1295.851562 866.984375 1293.050781 861.0625 1272.515625 C 855.148438 1251.992188 854.921875 1251.992188 855.203125 1230.199219 C 855.480469 1208.382812 845.078125 1200.109375 819.976562 1185.574219 C 794.855469 1171.027344 803.578125 1171.855469 795.640625 1161.554688 C 787.703125 1151.226562 782.328125 1146.015625 799.277344 1156.371094 C 816.238281 1166.742188 826.753906 1181.546875 841.574219 1195.582031 C 856.40625 1209.617188 864.441406 1166.949219 850.15625 1148.371094 C 835.863281 1129.816406 809.800781 1114.023438 781.074219 1106.449219 C 752.347656 1098.878906 761.285156 1094.148438 745.261719 1083.25 C 729.214844 1072.328125 704.375 1054.019531 704.375 1054.019531 C 719.421875 1063.109375 740.800781 1076.859375 751.445312 1080.769531 C 762.074219 1084.679688 772.242188 1079.21875 779.539062 1088.121094 C 786.828125 1097.011719 811.679688 1114.128906 830.789062 1123.21875 C 849.894531 1132.304688 843.292969 1108.5625 827.476562 1090.898438 C 811.648438 1073.261719 806.78125 1080.359375 780.167969 1069.109375 C 753.5625 1057.859375 742.148438 1052.019531 754.148438 1052.71875 C 772.453125 1053.808594 842.789062 1088.140625 855.808594 1095.089844 C 868.835938 1102.027344 883.117188 1093.539062 908.480469 1113.683594 C 933.871094 1133.84375 1083.140625 1353.984375 1095.648438 1346.546875 C 1108.171875 1339.101562 1187.320312 1186.722656 1208.660156 1190.957031 C 1230.019531 1195.164062 1208.800781 1056.199219 1202.660156 1037.300781 C 1196.539062 1018.390625 1203.730469 993.261719 1212.199219 994.441406 C 1220.671875 995.609375 1206.230469 966.980469 1217.230469 980.71875 C 1228.21875 994.480469 1232.148438 984.808594 1237.390625 965.921875 C 1242.628906 947.019531 1226.28125 927.429688 1230.621094 924.851562 C 1234.960938 922.269531 1241.238281 914.03125 1243.300781 897.570312 C 1245.371094 881.128906 1252.511719 890.410156 1255.859375 899.121094 C 1259.199219 907.851562 1247.351562 914.890625 1247.351562 914.890625 C 1251.261719 921.039062 1247.238281 925.109375 1247.238281 925.109375 C 1254.109375 935.679688 1250.480469 946.300781 1246.878906 958.03125 C 1243.28125 969.761719 1244.429688 998.820312 1244.429688 998.820312 C 1260.058594 1018.089844 1250.371094 1046.921875 1279.851562 1077.808594 C 1307.390625 1106.648438 1332.628906 1096.488281 1332.628906 1096.488281 C 1332.628906 1096.488281 1342.699219 1156.75 1371.039062 1128.617188 C 1399.371094 1100.511719 1441.621094 998.980469 1450.519531 972.769531 C 1459.441406 946.53125 1464.589844 917.859375 1464.589844 917.859375 L 1467.511719 920.988281 C 1467.511719 920.988281 1462.671875 939.269531 1463.109375 966.558594 C 1463.558594 993.820312 1381.140625 1111.074219 1373.648438 1139.757812 C 1366.128906 1168.449219 1408.480469 1218.15625 1433.070312 1224.464844 C 1457.640625 1230.773438 1467.980469 1235.648438 1467.980469 1235.648438 C 1486.75 1238.628906 1496.511719 1234.617188 1510.109375 1228.9375 C 1523.691406 1223.28125 1547.410156 1227.828125 1557.171875 1227.703125 C 1566.960938 1227.566406 1576.828125 1220.5625 1585.871094 1222.390625 C 1594.910156 1224.242188 1586.339844 1231.757812 1570.808594 1233.160156 C 1555.28125 1234.554688 1533.261719 1238.042969 1531 1243.257812 C 1528.730469 1248.480469 1513.351562 1237.847656 1493.820312 1241.617188 C 1474.300781 1245.417969 1474.488281 1277.769531 1481.289062 1294.773438 C 1488.101562 1311.789062 1495.878906 1330.628906 1489.929688 1349.179688 C 1484.03125 1367.738281 1495.710938 1378.839844 1495.710938 1378.839844 C 1471.769531 1379.808594 1496.019531 1418.335938 1493.398438 1430.117188 C 1490.800781 1441.878906 1480.53125 1461.21875 1486.890625 1470.054688 C 1493.261719 1478.917969 1522.949219 1488.933594 1519.269531 1491.121094 C 1515.558594 1493.316406 1499.488281 1479.429688 1483.550781 1473.859375 C 1467.589844 1468.304688 1468.148438 1502.871094 1468.148438 1502.871094 C 1461.03125 1504.691406 1462.101562 1521.644531 1467.320312 1536.261719 C 1472.519531 1550.863281 1472.148438 1552.242188 1487.628906 1562.285156 C 1503.121094 1572.320312 1491.621094 1575.296875 1516.738281 1590.78125 C 1541.871094 1606.265625 1545.320312 1613.917969 1536.878906 1611.113281 C 1528.441406 1608.308594 1529.269531 1601.21875 1518.621094 1596.125 C 1507.96875 1591.027344 1503.710938 1577.925781 1496.859375 1577.175781 C 1490 1576.445312 1477.578125 1558.5625 1467.808594 1550.539062 C 1458.039062 1542.515625 1442.25 1546.488281 1421.121094 1547.613281 C 1400.011719 1548.746094 1379.160156 1528.667969 1377.941406 1549.84375 C 1376.730469 1571.003906 1364.628906 1573.382812 1357.261719 1578.359375 C 1349.878906 1583.359375 1336.339844 1593.214844 1322.96875 1592.734375 C 1309.589844 1592.261719 1267.179688 1585 1285.089844 1615.851562 C 1303 1646.703125 1287.371094 1641.550781 1280.960938 1649.574219 C 1274.558594 1657.601562 1290.671875 1673.867188 1281.078125 1676.578125 C 1271.5 1679.265625 1270.890625 1700.074219 1276.871094 1724.773438 C 1282.859375 1749.492188 1256.210938 1755.089844 1263.050781 1734.796875 C 1269.871094 1714.511719 1270.828125 1695.902344 1268.351562 1678.117188 C 1265.898438 1660.339844 1255.179688 1631.835938 1248.390625 1616.007812 C 1241.609375 1600.199219 1223.660156 1604.863281 1215.171875 1599.078125 C 1206.671875 1593.304688 1191.300781 1584.410156 1172.558594 1598.554688 C 1153.820312 1612.710938 1131.46875 1654.238281 1133.800781 1683.53125 C 1136.148438 1712.804688 1123.390625 1732.410156 1122.160156 1752.980469 C 1120.921875 1773.566406 1108.371094 1785.238281 1110.078125 1795.050781 C 1111.808594 1804.855469 1095.53125 1818.738281 1100.078125 1850.304688 C 1104.609375 1881.886719 1089.179688 1868.21875 1093.410156 1860.890625 C 1097.648438 1853.5625 1098.21875 1830.972656 1091.441406 1815.164062 C 1084.660156 1799.355469 1105.691406 1812.101562 1100.039062 1788.988281 C 1094.378906 1765.886719 1090.769531 1754.199219 1106.710938 1739.328125 C 1122.640625 1724.457031 1117.828125 1691.511719 1115.960938 1656.855469 "/>
<path fill-rule="evenodd" fill="rgb(0%, 0%, 0%)" fill-opacity="1" d="M 1053.480469 1896.910156 C 1053.480469 1896.910156 1044.679688 1927.289062 1043.398438 1954.640625 C 1042.121094 1982.023438 1009.890625 2012.332031 1001.269531 2058.273438 C 992.652344 2104.242188 1006.121094 2108.710938 987.742188 2134.402344 C 969.371094 2160.082031 952.957031 2151.851562 970.46875 2117.125 C 987.964844 2082.382812 982.214844 2063.214844 1000.511719 2023.234375 C 1018.800781 1983.261719 1039.171875 1883.378906 1053.480469 1896.910156 "/>
<path fill-rule="evenodd" fill="rgb(0%, 0%, 0%)" fill-opacity="1" d="M 1610.039062 705.191406 C 1610.039062 705.191406 1649.660156 714.390625 1642.621094 679.539062 C 1635.578125 644.691406 1599.070312 666.121094 1600.339844 680.800781 C 1601.609375 695.480469 1600.148438 700.378906 1595.160156 703.75 C 1590.179688 707.148438 1600.03125 709.609375 1610.039062 705.191406 "/>
<path fill-rule="evenodd" fill="rgb(0%, 0%, 0%)" fill-opacity="1" d="M 615.339844 770.140625 C 615.339844 770.140625 615.347656 748.378906 591.222656 731.46875 C 567.101562 714.550781 483.277344 714.480469 457.007812 679 C 430.710938 643.53125 503.683594 693.96875 556.765625 704.269531 C 609.828125 714.53125 621.007812 704.210938 603.609375 693.019531 C 586.203125 681.851562 493.199219 650.859375 468.039062 622.878906 C 442.871094 594.871094 470.367188 622.25 515.402344 645.488281 C 560.40625 668.738281 608.269531 685.789062 610.949219 677.75 C 613.625 669.710938 526.886719 608.960938 458.996094 557.269531 C 391.085938 505.578125 265.492188 441.628906 278.589844 427.160156 C 291.664062 412.679688 328.4375 462.359375 421.070312 512.039062 C 513.726562 561.730469 505.511719 551.609375 535.015625 592.738281 C 564.535156 633.890625 637.746094 686.019531 638.378906 658.410156 C 638.988281 630.78125 625.714844 570.980469 595.527344 550.5 C 565.308594 530.03125 609.769531 485.648438 624.867188 546.570312 C 639.996094 607.5 662.171875 654.269531 697.292969 650.289062 C 732.445312 646.308594 732.441406 640.039062 725.988281 619.960938 C 719.53125 599.859375 787.136719 625.820312 783.324219 601.128906 C 771.847656 526.878906 810.878906 622.179688 838.882812 567.390625 C 869.757812 506.941406 874.816406 608.890625 898.289062 607.691406 C 921.785156 606.480469 929.34375 524.011719 952.628906 514.089844 C 975.941406 504.179688 979.496094 501.820312 994.65625 519.921875 C 1009.828125 538.011719 1004.289062 509.25 1025.390625 500.191406 C 1046.511719 491.121094 1066.988281 527.078125 1036.800781 527.171875 C 1006.609375 527.289062 997.304688 550.269531 1014.398438 564.628906 C 1031.488281 578.988281 1051.601562 530.238281 1080.71875 517.851562 C 1109.839844 505.460938 1187 437.96875 1202.871094 414.460938 C 1218.761719 390.949219 1229.648438 418.53125 1200.859375 434.53125 C 1172.050781 450.539062 1118.601562 497.75 1101.460938 528.558594 C 1084.328125 559.398438 1177.621094 482 1215.71875 453.730469 C 1253.851562 425.441406 1241.160156 409.761719 1276.621094 416.121094 C 1312.078125 422.460938 1296.890625 399.640625 1324.988281 408.179688 C 1353.109375 416.71875 1309.011719 453.308594 1282.691406 425.609375 C 1267.378906 409.511719 1277.601562 438.871094 1249.339844 471.421875 C 1221.121094 503.960938 1146.410156 551.660156 1157.390625 562.25 C 1168.359375 572.828125 1197.210938 531.199219 1235.679688 511.390625 C 1274.140625 491.550781 1280.070312 493.109375 1297.058594 484.058594 C 1314.070312 475.019531 1297.929688 489.601562 1284.539062 504.410156 C 1271.140625 519.21875 1295.230469 516.121094 1269.128906 536.039062 C 1243.03125 555.980469 1165.230469 619.070312 1170.441406 637.410156 C 1175.660156 655.710938 1261.109375 596.710938 1272.398438 608.351562 C 1283.671875 619.949219 1219.800781 1006.800781 1211.738281 1003.851562 C 1165.558594 986.929688 1138.101562 1018.058594 1119.578125 1054.988281 C 1099 1096.078125 1142.019531 1154.492188 1183.710938 1145.566406 C 1225.429688 1136.652344 1201.390625 1191.511719 1167.75 1163.242188 C 1134.089844 1134.976562 1103.589844 1138.277344 1087.25 1117.042969 C 1070.910156 1095.808594 1030.53125 1089.75 1023.980469 1104.617188 C 1017.410156 1119.464844 1023.679688 1129.023438 1010.199219 1119.851562 C 996.71875 1110.679688 969.417969 1150.980469 998.28125 1163.449219 C 1027.140625 1175.898438 1018.449219 1214.675781 995.5 1228.644531 C 972.546875 1242.585938 958.59375 1255.503906 987.699219 1263.894531 C 1016.820312 1272.253906 1004.648438 1319.941406 982.601562 1302.480469 C 960.546875 1285.027344 972.703125 1265.234375 956.9375 1243.402344 C 941.152344 1221.546875 910.1875 1254.5 937.246094 1287.964844 C 964.304688 1321.429688 944.726562 1325.328125 960.273438 1337.316406 C 975.796875 1349.292969 1067.410156 1402.652344 1060.628906 1415.199219 C 1053.878906 1427.738281 1030.78125 1405.128906 1013.191406 1390.347656 C 995.597656 1375.574219 966.476562 1363.984375 949.71875 1336.28125 C 932.976562 1308.609375 936.4375 1301.890625 918.050781 1291.78125 C 899.660156 1281.691406 879.960938 1270.507812 871.957031 1289.5 C 863.953125 1308.515625 857.992188 1330.3125 830.453125 1346.832031 C 802.890625 1363.34375 788.316406 1397.1875 797.152344 1429.253906 C 805.976562 1461.34375 777.449219 1522.042969 769.265625 1504.464844 C 761.109375 1486.875 778.035156 1459.285156 766.699219 1440.128906 C 755.371094 1420.96875 745.34375 1430.773438 761.515625 1401.464844 C 777.703125 1372.183594 823.277344 1312.933594 810.042969 1299.675781 C 796.808594 1286.410156 716.574219 1278.089844 697.226562 1283.605469 C 677.898438 1289.15625 641.007812 1311.765625 627.820312 1305.707031 C 614.660156 1299.65625 666.367188 1277.789062 664.851562 1264.785156 C 663.3125 1251.777344 585.519531 1290.273438 579.277344 1326.875 C 573.019531 1363.503906 561.90625 1322.335938 566.121094 1305.789062 C 570.34375 1289.230469 607.90625 1243.738281 586.445312 1235.78125 C 564.988281 1227.800781 670.601562 1216.011719 689.828125 1176.902344 C 709.078125 1137.796875 690.289062 1091.859375 671.039062 1110.855469 C 651.785156 1129.878906 595.34375 1120.96875 602.355469 1093.390625 C 609.402344 1065.789062 604.46875 1063.328125 579.441406 1079.128906 C 554.382812 1094.941406 558.070312 1126.503906 533.246094 1112.355469 C 508.441406 1098.21875 532.464844 1081.558594 562.738281 1071.828125 C 593.039062 1062.109375 591.621094 1024.058594 571.414062 1008.769531 C 551.21875 993.46875 466.195312 970.609375 435.042969 959.511719 C 403.886719 948.410156 439.960938 940.199219 481.621094 963.46875 C 523.285156 986.730469 569.933594 1002.480469 585.890625 990.769531 C 601.875 979.058594 593.773438 963.011719 579.925781 960.140625 C 566.066406 957.300781 570.753906 936.53125 586.90625 947.890625 C 603.039062 959.238281 619.699219 962.261719 624.347656 951.898438 C 629.015625 941.558594 615.621094 944.03125 613.753906 933.121094 C 611.878906 922.21875 621.207031 940.480469 632.609375 933.039062 C 644.027344 925.628906 632.90625 918.671875 627.128906 905.570312 C 621.363281 892.5 600.148438 897.539062 602.625 878.589844 C 605.105469 859.640625 597.769531 828.769531 580.492188 819.769531 C 563.226562 810.738281 480.539062 818.328125 457.507812 812.699219 C 434.46875 807.078125 458.152344 805.238281 477.015625 807.371094 C 495.871094 809.480469 534.65625 811.210938 550.320312 806.058594 C 565.976562 800.921875 566.257812 796.570312 584.738281 801.828125 C 603.226562 807.058594 608.074219 784.421875 615.339844 770.140625 "/>
<path fill-rule="evenodd" fill="rgb(0%, 0%, 0%)" fill-opacity="1" d="M 486.914062 1406.132812 C 461.855469 1405.566406 389.167969 1438.296875 508.84375 1420.882812 C 544.703125 1415.679688 532.386719 1394.628906 556.515625 1397.351562 C 580.632812 1400.054688 627.855469 1379.902344 605.363281 1361.765625 C 582.890625 1343.597656 548.882812 1393.957031 530.175781 1378.765625 C 511.46875 1363.574219 511.957031 1406.707031 486.914062 1406.132812 "/>
<path fill-rule="evenodd" fill="rgb(0%, 0%, 0%)" fill-opacity="1" d="M 452 1198.890625 C 452 1198.890625 458.839844 1181.207031 468.0625 1188.25 C 477.308594 1195.296875 475.460938 1205.746094 467.722656 1213.066406 C 459.984375 1220.378906 448.988281 1210.070312 452 1198.890625 "/>
<path fill-rule="evenodd" fill="rgb(0%, 0%, 0%)" fill-opacity="1" d="M 398.171875 1431.984375 C 398.171875 1431.984375 396.574219 1442.542969 370.164062 1444.496094 C 343.726562 1446.429688 329.492188 1464.0625 275.554688 1469.605469 C 275.554688 1469.605469 280.5 1455.171875 317.339844 1451.597656 C 354.179688 1448.027344 370.984375 1427.570312 384.265625 1427.78125 C 397.546875 1427.976562 399.304688 1425.050781 398.171875 1431.984375 "/>
<path fill-rule="evenodd" fill="rgb(0%, 0%, 0%)" fill-opacity="1" d="M 266.652344 1474.367188 C 266.652344 1474.367188 257.71875 1473.78125 246.132812 1481.214844 C 234.519531 1488.652344 219.96875 1484.59375 228.8125 1474.417969 C 237.652344 1464.246094 257.386719 1476.5 264.128906 1468.773438 C 270.882812 1461.066406 273.0625 1470.410156 266.652344 1474.367188 "/>
<path fill-rule="evenodd" fill="rgb(0%, 0%, 0%)" fill-opacity="1" d="M 320.203125 1426.328125 C 320.203125 1426.328125 294.253906 1461.214844 275.90625 1427.929688 C 257.558594 1394.636719 302.140625 1386.878906 311.253906 1399.726562 C 320.367188 1412.582031 324.941406 1415.5625 331.339844 1414.863281 C 337.753906 1414.191406 331.421875 1423.015625 320.203125 1426.328125 "/>
<path fill-rule="evenodd" fill="rgb(0%, 0%, 0%)" fill-opacity="1" d="M 469.632812 995.859375 C 469.632812 995.859375 479.839844 1019.539062 492.011719 1009.488281 C 504.21875 999.441406 501.167969 985.328125 490.269531 975.78125 C 479.382812 966.238281 464.964844 980.808594 469.632812 995.859375 "/>
<path fill-rule="evenodd" fill="rgb(0%, 0%, 0%)" fill-opacity="1" d="M 265.273438 813.949219 C 265.273438 813.949219 240.621094 783.300781 225.179688 814.019531 C 209.734375 844.738281 250.296875 850.230469 258.09375 838.300781 C 265.890625 826.371094 269.925781 823.519531 275.730469 823.929688 C 281.554688 824.320312 275.527344 816.558594 265.273438 813.949219 "/>
<path fill-rule="evenodd" fill="rgb(0%, 0%, 0%)" fill-opacity="1" d="M 384.476562 681.808594 C 384.476562 681.808594 381.761719 667.539062 345.765625 666.25 C 309.730469 664.980469 289.476562 641.75 215.882812 636.980469 C 215.882812 636.980469 223.347656 656.351562 273.601562 659.308594 C 323.859375 662.269531 347.75 689.210938 365.792969 688.238281 C 383.832031 687.289062 386.371094 691.179688 384.476562 681.808594 "/>
<path fill-rule="evenodd" fill="rgb(0%, 0%, 0%)" fill-opacity="1" d="M 203.539062 630.96875 C 203.539062 630.96875 191.425781 632.230469 175.292969 622.71875 C 159.132812 613.210938 139.558594 619.480469 152.105469 632.851562 C 164.644531 646.21875 190.835938 628.550781 200.398438 638.710938 C 209.972656 648.828125 212.457031 636.019531 203.539062 630.96875 "/>
<path fill-rule="evenodd" fill="rgb(0%, 0%, 0%)" fill-opacity="1" d="M 1422.820312 1164.855469 C 1422.820312 1164.855469 1401.839844 1112.226562 1439.769531 1148.605469 C 1477.710938 1185 1642.46875 1462.421875 1670.148438 1519.035156 C 1697.859375 1575.652344 1702.460938 1594.691406 1741.898438 1615.046875 C 1781.300781 1635.398438 1821.160156 1647.222656 1853.171875 1690.117188 C 1885.191406 1733.007812 1932.511719 1708.535156 1935.441406 1741.015625 C 1938.390625 1773.476562 1929.25 1823.203125 1910.628906 1795.164062 C 1892 1767.15625 1878.550781 1708.375 1828.089844 1704.628906 C 1777.609375 1700.90625 1758.101562 1639.117188 1724.980469 1617.523438 C 1691.871094 1595.921875 1661.761719 1528.464844 1627.238281 1509.152344 C 1592.691406 1489.824219 1591.078125 1489.488281 1553.589844 1380.015625 C 1516.101562 1270.546875 1511 1273.789062 1490.101562 1251.320312 C 1469.21875 1228.835938 1440.410156 1200.386719 1422.820312 1164.855469 "/>
</svg>
